<svg width="7" height="13" viewBox="0 0 7 13" fill="none" xmlns="http://www.w3.org/2000/svg">
<path d="M1.53073 0.969402L6.53073 5.9694C6.60065 6.03908 6.65613 6.12187 6.69399 6.21304C6.73184 6.3042 6.75133 6.40194 6.75133 6.50065C6.75133 6.59936 6.73184 6.6971 6.69399 6.78827C6.65613 6.87943 6.60065 6.96222 6.53073 7.0319L1.53073 12.0319C1.38984 12.1728 1.19874 12.252 0.999484 12.252C0.800227 12.252 0.609131 12.1728 0.468235 12.0319C0.327338 11.891 0.248184 11.6999 0.248184 11.5007C0.248184 11.3014 0.327338 11.1103 0.468235 10.9694L4.93761 6.50003L0.46761 2.03065C0.326714 1.88976 0.247559 1.69866 0.247559 1.4994C0.247559 1.30015 0.326714 1.10905 0.46761 0.968153C0.608506 0.827257 0.799603 0.7481 0.99886 0.7481C1.19812 0.7481 1.38921 0.827257 1.53011 0.968153L1.53073 0.969402Z" fill="black" fill-opacity="0.6"/>
</svg>
